HIERARCHY
ROOT root
{
	OFFSET 0.000000 0.000000 0.000000
	CHANNELS 6 Xposition Yposition Zposition Zrotation Yrotation Xrotation
	JOINT lhip
	{
		OFFSET 0.058581 -0.082280 -0.017664
		CHANNELS 3 Zrotation Yrotation Xrotation
		JOINT lknee
		{
			OFFSET 0.043451 -0.386469 0.008037
			CHANNELS 3 Zrotation Yrotation Xrotation
			JOINT lankle
			{
				OFFSET -0.014790 -0.426874 -0.037428
				CHANNELS 3 Zrotation Yrotation Xrotation
				JOINT ltoe
				{
					OFFSET 0.041054 -0.060286 0.122042
					CHANNELS 3 Zrotation Yrotation Xrotation
					End Site
					{
						OFFSET 0.000000 0.000000 0.000000
					}
				}
			}
		}
	}
	JOINT rhip
	{
		OFFSET -0.060310 -0.090513 -0.013543
		CHANNELS 3 Zrotation Yrotation Xrotation
		JOINT rknee
		{
			OFFSET -0.043257 -0.383688 -0.004843
			CHANNELS 3 Zrotation Yrotation Xrotation
			JOINT rankle
			{
				OFFSET 0.019056 -0.420046 -0.034562
				CHANNELS 3 Zrotation Yrotation Xrotation
				JOINT rtoe
				{
					OFFSET -0.034840 -0.062106 0.130323
					CHANNELS 3 Zrotation Yrotation Xrotation
					End Site
					{
						OFFSET 0.000000 0.000000 0.000000
					}
				}
			}
		}
	}
	JOINT lowerback
	{
		OFFSET 0.004439 0.124404 -0.038385
		CHANNELS 3 Zrotation Yrotation Xrotation
		JOINT upperback
		{
			OFFSET 0.004488 0.137956 0.026820
			CHANNELS 3 Zrotation Yrotation Xrotation
			JOINT chest
			{
				OFFSET -0.002265 0.056032 0.002855
				CHANNELS 3 Zrotation Yrotation Xrotation
				JOINT lowerneck
				{
					OFFSET -0.013390 0.211636 -0.033468
					CHANNELS 3 Zrotation Yrotation Xrotation
					JOINT upperneck
					{
						OFFSET 0.010113 0.088937 0.050410
						CHANNELS 3 Zrotation Yrotation Xrotation
						End Site
						{
							OFFSET 0.000000 0.000000 0.000000
						}
					}
				}
				JOINT lclavicle
				{
					OFFSET 0.071702 0.114000 -0.018898
					CHANNELS 3 Zrotation Yrotation Xrotation
					JOINT lshoulder
					{
						OFFSET 0.122921 0.045205 -0.019046
						CHANNELS 3 Zrotation Yrotation Xrotation
						JOINT lelbow
						{
							OFFSET 0.255332 -0.015649 -0.022946
							CHANNELS 3 Zrotation Yrotation Xrotation
							JOINT lwrist
							{
								OFFSET 0.265709 0.012698 -0.007375
								CHANNELS 3 Zrotation Yrotation Xrotation
								End Site
								{
									OFFSET 0.000000 0.000000 0.000000
								}
							}
						}
					}
				}
				JOINT rclavicle
				{
					OFFSET -0.082954 0.112472 -0.023707
					CHANNELS 3 Zrotation Yrotation Xrotation
					JOINT rshoulder
					{
						OFFSET -0.113228 0.046853 -0.008472
						CHANNELS 3 Zrotation Yrotation Xrotation
						JOINT relbow
						{
							OFFSET -0.260127 -0.014369 -0.031269
							CHANNELS 3 Zrotation Yrotation Xrotation
							JOINT rwrist
							{
								OFFSET -0.269108 0.006794 -0.006027
								CHANNELS 3 Zrotation Yrotation Xrotation
								End Site
								{
									OFFSET 0.000000 0.000000 0.000000
								}
							}
						}
					}
				}
			}
		}
	}
}
MOTION
Frames: 11
Frame Time: 0.033333
0.221193 1.700426 1.024841 15.551626 8.599027 77.651523 7.117067 9.258898 18.910129 -1.996008 -11.778162 2.646285 3.108413 13.918296 -17.878747 0.000000 -0.000000 0.000000 -4.060466 3.824003 -61.554942 0.578291 -13.762449 80.759042 4.091858 -2.880222 -14.958844 0.000000 -0.000000 0.000000 -2.849742 -12.597618 23.043560 1.793881 0.934048 2.681398 -0.200711 -1.665063 1.969302 4.595740 2.065258 -3.666161 4.126130 -6.128242 1.515738 -14.698554 -18.378758 -7.816727 -36.940425 -32.639429 2.940252 33.312039 -47.730701 -29.936502 11.401390 -7.119966 -9.248040 15.320228 15.453272 -1.227454 36.791674 18.325559 4.939981 -36.747085 46.008596 -24.753949 6.622202 7.239180 -1.494990 
0.222773 1.690956 1.024103 15.493332 8.467103 77.971894 6.907389 9.153961 19.115346 -1.799004 -11.905171 2.855733 3.037955 14.265952 -18.503931 0.000000 -0.000000 0.000000 -3.876166 4.493398 -61.339326 0.830184 -12.805036 80.288474 4.268345 -3.163099 -13.796805 0.000000 -0.000000 0.000000 -2.739328 -12.849696 23.434305 1.917147 0.794539 2.094774 0.010563 -1.555325 1.736511 4.717827 1.845095 -5.156719 4.048748 -6.251040 1.769353 -12.735012 -19.424667 -8.854136 -35.166745 -33.774220 1.688622 34.793900 -48.129349 -32.007941 11.686974 -7.527355 -9.636593 13.530344 16.724659 -2.071243 34.910328 20.274885 3.775123 -39.266656 46.746325 -27.560498 6.203829 7.567417 -1.662418 
0.224208 1.681187 1.023384 15.511850 8.232151 78.462146 6.673223 9.126340 19.208905 -1.683741 -12.066042 2.951271 2.931801 14.507302 -18.873617 0.000000 -0.000000 0.000000 -3.707769 5.073214 -61.094645 1.054039 -11.885391 80.025570 4.500167 -3.393444 -12.114616 0.000000 -0.000000 0.000000 -2.794859 -13.022325 24.095879 2.030318 0.658733 1.244537 0.391901 -1.476295 1.357549 5.041091 1.462855 -6.974855 4.029569 -6.405046 2.227161 -10.905809 -20.504817 -9.681610 -33.131233 -34.545847 0.274168 36.291525 -48.437581 -33.878457 11.005084 -8.153191 -10.066229 11.557443 18.164598 -2.736059 32.649938 22.033031 2.309458 -41.302940 47.066168 -30.132568 6.607572 7.821391 -2.351923 
0.225357 1.670993 1.022626 15.634601 8.028146 79.203075 6.596746 9.244753 19.009489 -1.691509 -12.245770 3.161562 2.710617 14.625083 -19.175968 0.000000 -0.000000 0.000000 -3.326690 5.453298 -60.906273 1.329993 -10.965930 79.797146 4.402824 -3.714963 -11.732820 0.000000 -0.000000 0.000000 -2.772101 -13.178665 24.733574 2.129167 0.484627 0.278539 0.822767 -1.417583 0.894664 5.502062 1.203339 -8.581771 3.990455 -6.424074 2.287396 -9.050678 -21.708901 -10.598797 -30.908336 -34.984949 -1.202915 37.337434 -48.544641 -34.869119 9.706027 -8.602761 -10.357628 9.340648 19.835581 -3.682204 30.316552 23.699991 0.544250 -42.593859 46.717584 -32.152683 7.320325 8.003773 -3.129513 
0.226130 1.660645 1.021998 15.773400 7.852483 80.079211 6.581564 9.495193 18.541006 -1.723059 -12.510277 3.678973 2.385132 14.741832 -19.664496 0.000000 -0.000000 0.000000 -2.856762 5.735967 -61.027105 1.256797 -10.187831 80.079483 3.746604 -4.452838 -13.886111 0.000000 -0.000000 0.000000 -2.611695 -13.336901 25.393159 2.177071 0.401821 -0.704188 1.225263 -1.388290 0.600064 5.870410 1.157600 -10.108963 3.904770 -6.472421 1.740129 -6.803497 -22.936056 -11.710212 -28.658219 -35.594195 -2.971279 38.011024 -48.065655 -35.604597 9.953210 -8.560452 -10.368907 6.752239 21.613895 -5.149475 27.978520 25.406738 -1.520588 -43.163203 45.899421 -33.506262 6.517631 8.287058 -3.351823 
0.226325 1.650334 1.021723 15.911087 7.751886 81.245273 6.613501 9.711950 17.643760 -1.769335 -12.706764 4.396854 2.044091 14.738026 -19.918446 0.000000 -0.000000 0.000000 -2.623159 6.016574 -61.922323 1.053222 -9.826748 80.986029 3.330889 -4.921394 -15.270506 0.000000 -0.000000 0.000000 -2.181750 -13.530431 25.852012 2.175426 0.438336 -1.521817 1.521047 -1.303445 0.319954 5.905619 1.052109 -11.353212 4.101078 -6.301685 0.620826 -4.251558 -24.578946 -12.757801 -26.188644 -36.282084 -5.077150 39.319921 -46.505061 -37.007215 11.235472 -8.346506 -9.939559 3.719248 23.352235 -6.622837 25.308406 26.952615 -4.081696 -43.397030 44.840555 -34.440378 5.162177 8.365615 -4.438052 
0.225909 1.639636 1.022305 15.943229 7.733385 82.497130 6.747193 9.759333 16.795892 -1.806242 -13.003332 4.853710 1.587726 14.881930 -19.723698 0.000000 -0.000000 0.000000 -2.498623 6.454227 -63.147016 1.088084 -9.758929 81.959268 3.593439 -5.327753 -15.481004 0.000000 -0.000000 0.000000 -1.694039 -13.756985 26.280570 2.129553 0.718978 -2.122606 1.791601 -1.080198 0.088816 5.789394 0.910614 -12.462084 4.452726 -6.216275 -0.634824 -1.405776 -25.920692 -14.169038 -23.332549 -37.187625 -7.404563 39.625500 -44.760754 -38.692821 13.369307 -7.816391 -9.562487 0.278151 24.772244 -8.341837 22.328503 28.400293 -6.813138 -42.976957 43.402991 -35.393254 3.294685 8.110942 -5.944560 
0.225175 1.628216 1.024509 15.911740 7.671074 83.770328 6.830831 9.755397 15.898191 -1.793492 -13.500597 5.393388 0.925341 15.086235 -19.023654 0.000000 -0.000000 0.000000 -2.378666 6.952084 -64.120955 1.126104 -9.732522 82.590301 3.745824 -5.644491 -15.789673 0.000000 -0.000000 0.000000 -1.307288 -13.951996 26.726024 2.059420 0.993941 -2.694610 2.085535 -0.777630 -0.022649 5.527613 0.711673 -13.356010 4.787806 -6.101700 -1.871824 1.649615 -26.927536 -15.854055 -20.635241 -38.301747 -9.702231 39.752053 -42.528080 -41.148258 17.182802 -6.728471 -9.525981 -3.488721 26.035538 -10.387114 19.312526 29.776088 -9.579679 -41.777455 41.419115 -36.174395 0.695324 7.589629 -7.353837 
0.223919 1.616107 1.029350 15.723034 7.595538 85.203741 6.895677 9.682951 14.620042 -1.877894 -13.704385 6.324037 -0.019503 15.132378 -17.454370 0.000000 -0.000000 0.000000 -2.122027 7.774542 -64.730697 1.003105 -9.526141 82.541450 3.249706 -5.933295 -16.615675 0.000000 -0.000000 0.000000 -0.994313 -14.037743 27.037265 2.060212 1.248449 -3.330332 2.451324 -0.438255 -0.075250 5.050378 0.510130 -13.872672 5.077627 -5.955570 -3.166075 4.622606 -27.470431 -17.115178 -18.376363 -39.384446 -12.112678 40.596378 -40.066962 -43.860283 20.123637 -5.423144 -10.402552 -7.523608 26.986390 -12.596109 16.725759 31.225290 -12.186568 -40.327837 39.080195 -36.575959 -1.716255 6.819635 -9.295137 
0.222509 1.602842 1.037984 15.364828 7.625392 87.001799 6.962240 9.303665 12.924237 -1.925340 -13.263201 7.260915 -1.478597 14.800913 -14.663948 0.000000 -0.000000 0.000000 -1.728079 8.985427 -65.020742 0.590346 -9.372877 81.493004 2.267893 -6.402705 -17.443304 0.000000 -0.000000 0.000000 -0.527233 -14.167479 27.005606 2.158531 1.513086 -3.893288 2.839945 0.152551 -0.396765 4.255369 -0.100096 -14.141248 5.468523 -5.928078 -4.495813 7.327521 -27.451927 -18.907753 -18.224163 -39.948621 -13.570243 41.748436 -38.900346 -46.019818 21.418926 -4.137609 -12.277474 -11.506858 27.510200 -14.522624 15.211924 32.757906 -14.749286 -40.032847 37.143006 -36.954380 -2.632424 6.024995 -11.184654 
0.220825 1.588133 1.051392 14.968743 7.824181 88.971679 7.264629 8.745095 11.285604 -1.907913 -12.512860 7.509822 -3.155004 14.407280 -10.103338 0.000000 -0.000000 0.000000 -1.490329 10.547395 -64.326233 1.493840 -9.690297 78.726727 0.337159 -8.657592 -18.099462 0.000000 -0.000000 0.000000 0.381375 -14.888897 27.171098 1.462360 2.125648 -5.092798 3.217105 0.668263 -0.914906 2.847558 -2.907316 -14.474512 7.670681 -4.172323 -4.545634 8.622044 -27.555170 -20.206629 -18.485836 -40.044711 -12.917909 44.796935 -38.200217 -49.297257 21.503565 -1.393095 -12.892848 -14.268133 29.156340 -14.290440 13.019818 33.427756 -18.416490 -41.293461 35.917320 -39.875023 -2.645855 6.394852 -12.440063 
